<?xml version="1.0" standalone="no"?>
<!DOCTYPE svg PUBLIC "-//W3C//DTD SVG 20010904//EN"
 "http://www.w3.org/TR/2001/REC-SVG-20010904/DTD/svg10.dtd">
<svg version="1.0" xmlns="http://www.w3.org/2000/svg"
 width="300.000000pt" height="300.000000pt" viewBox="0 0 300.000000 300.000000"
 preserveAspectRatio="xMidYMid meet">
<metadata>
Created by potrace 1.14, written by Peter Selinger 2001-2017
</metadata>
<g transform="translate(0.000000,300.000000) scale(0.100000,-0.100000)"
fill="#000000" stroke="none">
<path d="M200 2550 l-25 -19 0 -1026 0 -1027 24 -19 c23 -18 58 -19 1305 -19
l1283 0 21 23 22 23 0 1020 0 1021 -23 21 -23 22 -1280 0 c-1246 0 -1280 -1
-1304 -20z m2584 -26 l26 -27 0 -992 0 -992 -26 -27 -27 -26 -1249 0 c-1290 0
-1275 0 -1305 39 -10 12 -12 242 -13 997 0 1035 -1 1021 45 1043 13 6 480 10
1271 10 l1251 1 27 -26z"/>
<path d="M650 2022 c0 -111 4 -172 10 -172 14 0 100 86 100 100 0 5 5 10 10
10 14 0 100 86 100 100 0 5 10 10 23 10 12 0 29 9 37 20 8 11 22 20 32 20 10
0 18 5 18 10 0 6 11 10 25 10 14 0 25 5 25 10 0 6 9 10 20 10 11 0 20 7 20 15
0 12 -18 15 -103 15 -57 0 -152 3 -210 7 l-107 6 0 -171z"/>
<path d="M2053 2183 c-118 -3 -143 -6 -143 -18 0 -9 10 -15 25 -15 14 0 25 -4
25 -10 0 -5 8 -10 18 -10 10 0 24 -9 32 -20 8 -11 23 -20 33 -20 18 0 47 -22
47 -35 0 -12 29 -35 44 -35 9 0 16 -4 16 -10 0 -5 5 -10 10 -10 13 0 60 -45
60 -57 0 -5 9 -15 20 -23 11 -8 20 -22 20 -32 0 -10 5 -18 11 -18 14 0 39 -25
39 -39 0 -6 5 -11 10 -11 6 0 10 -9 10 -20 0 -11 4 -20 9 -20 10 0 26 384 16
400 -3 6 -39 9 -83 8 -42 -1 -141 -4 -219 -5z"/>
<path d="M1287 2100 c-8 -11 -31 -38 -51 -60 -20 -21 -36 -41 -36 -44 0 -7
-90 -138 -113 -163 -14 -16 -32 -23 -57 -23 -55 0 -122 -41 -141 -86 -2 -5
-29 -47 -60 -94 -61 -91 -80 -124 -140 -238 l-39 -73 0 -248 0 -249 373 -7
c273 -5 389 -4 437 5 46 8 187 11 480 8 l415 -3 3 215 c2 142 -1 229 -9 255
-6 22 -36 74 -67 115 -147 200 -176 230 -218 230 -43 0 -84 16 -84 33 0 7 -8
22 -17 33 -19 22 -37 50 -65 103 -45 87 -73 88 -153 5 -29 -29 -58 -54 -64
-54 -7 0 -29 13 -49 29 -20 16 -48 32 -62 36 -14 4 -33 14 -43 23 -20 18 -47
69 -47 89 0 8 -19 34 -42 59 -24 25 -49 52 -55 59 -7 8 -13 18 -13 23 0 14
-35 42 -53 42 -9 0 -22 -9 -30 -20z m507 -885 c11 -8 15 -15 9 -15 -7 0 -18
-14 -27 -31 -12 -24 -13 -35 -3 -49 9 -16 7 -23 -11 -43 -12 -13 -22 -34 -22
-48 0 -13 -9 -31 -20 -39 -11 -8 -20 -22 -20 -32 0 -21 -16 -24 -23 -5 -4 9
-7 9 -18 -1 -12 -11 -12 -14 0 -22 12 -7 12 -10 0 -23 -21 -21 -39 3 -39 51 0
35 -5 42 -40 66 -22 14 -48 26 -59 26 -11 0 -23 5 -26 10 -3 6 -17 10 -30 10
-13 0 -27 5 -30 10 -3 6 -15 10 -27 10 -21 0 -109 26 -140 41 -10 5 -28 9 -40
9 -30 0 -47 36 -33 68 l10 22 285 0 c235 -1 288 -3 304 -15z"/>
</g>
</svg>
